<?xml version="1.0" encoding="UTF-8" standalone="no"?>
<svg
   xmlns:dc="http://purl.org/dc/elements/1.1/"
   xmlns:cc="http://creativecommons.org/ns#"
   xmlns:rdf="http://www.w3.org/1999/02/22-rdf-syntax-ns#"
   xmlns:svg="http://www.w3.org/2000/svg"
   xmlns="http://www.w3.org/2000/svg"
   xmlns:sodipodi="http://sodipodi.sourceforge.net/DTD/sodipodi-0.dtd"
   xmlns:inkscape="http://www.inkscape.org/namespaces/inkscape"
   width="250mm"
   height="250mm"
   viewBox="0 0 250 250"
   version="1.1"
   id="svg8"
   inkscape:version="1.0.1 (3bc2e813f5, 2020-09-07)"
   sodipodi:docname="hs5.svg">
  <defs
     id="defs2">
    <inkscape:path-effect
       effect="bspline"
       id="path-effect846"
       is_visible="true"
       lpeversion="1"
       weight="33.333333"
       steps="2"
       helper_size="0"
       apply_no_weight="true"
       apply_with_weight="true"
       only_selected="false" />
  </defs>
  <sodipodi:namedview
     id="base"
     pagecolor="#ffffff"
     bordercolor="#666666"
     borderopacity="1.0"
     inkscape:pageopacity="0.0"
     inkscape:pageshadow="2"
     inkscape:zoom="0.53379057"
     inkscape:cx="652.66458"
     inkscape:cy="507.00458"
     inkscape:document-units="mm"
     inkscape:current-layer="layer1"
     inkscape:document-rotation="0"
     showgrid="false"
     inkscape:snap-bbox="true"
     inkscape:bbox-paths="true"
     inkscape:bbox-nodes="true"
     inkscape:snap-bbox-edge-midpoints="true"
     inkscape:snap-bbox-midpoints="true"
     inkscape:window-width="1920"
     inkscape:window-height="1227"
     inkscape:window-x="-8"
     inkscape:window-y="-8"
     inkscape:window-maximized="1" />
  <metadata
     id="metadata5">
    <rdf:RDF>
      <cc:Work
         rdf:about="">
        <dc:format>image/svg+xml</dc:format>
        <dc:type
           rdf:resource="http://purl.org/dc/dcmitype/StillImage" />
        <dc:title></dc:title>
      </cc:Work>
    </rdf:RDF>
  </metadata>
  <g
     inkscape:label="Layer 1"
     inkscape:groupmode="layer"
     id="layer1">
    <g
       aria-label="HAMPSHIRE"
       id="text835"
       style="font-style:normal;font-variant:normal;font-weight:bold;font-stretch:normal;font-size:1.49624px;line-height:1.25;font-family:FreeSans;-inkscape-font-specification:'FreeSans Bold';text-align:end;letter-spacing:0px;text-anchor:end;stroke-width:0.0175341"
       transform="matrix(1.7651099,0,0,1.7651099,3.7940015,-118.97231)" />
    <g
       id="g877"
       transform="translate(138.44562,-79.913589)">
      <path
         id="rect868"
         style="fill:#990099;fill-opacity:1;stroke-width:2.87776"
         d="m -138.44562,79.913589 h 250 V 329.91359 h -250 z" />
      <g
         aria-label="5"
         id="text839"
         style="font-style:normal;font-variant:normal;font-weight:bold;font-stretch:normal;font-size:22.5778px;line-height:1.25;font-family:FreeSans;-inkscape-font-specification:'FreeSans Bold';text-align:end;letter-spacing:0px;text-anchor:end;fill:#ffffff;fill-opacity:1;stroke-width:0.264583"
         transform="matrix(11.010348,0,0,11.010348,86.285267,-1394.5954)">
        <path
           id="path841"
           style="font-style:normal;font-variant:normal;font-weight:bold;font-stretch:normal;font-family:FreeSans;-inkscape-font-specification:'FreeSans Bold';fill:#ffffff;fill-opacity:1;stroke-width:0.264583"
           d="m -4.1585404,137.82866 v 2.82222 h -6.6152956 l -0.519289,3.34152 q 1.286934,-0.97085 2.7770691,-0.97085 2.2126244,0 3.5898703,1.53529 1.3998236,1.53529 1.3998236,3.99627 0,2.59645 -1.6030238,4.19947 -1.6030239,1.60303 -4.1768932,1.60303 -2.325513,0 -3.79307,-1.28694 -1.44498,-1.30951 -1.490135,-3.40924 h 3.115736 q 0.112889,1.98684 2.2126246,1.98684 1.1966235,0 1.8739575,-0.8128 0.6999118,-0.8128 0.6999118,-2.21262 0,-1.44498 -0.6999118,-2.25778 -0.677334,-0.83538 -1.8739575,-0.83538 -1.5127126,0 -2.0320016,1.2192 h -2.844803 l 1.422401,-8.91823 z m -0.5910148,-0.99899 v 0.28279 h 0.5910148 v 0.18703 h -0.8154508 v -1.09076 h 0.7885185 v 0.18703 h -0.5640825 v 0.24688 h 0.5221878 v 0.18703 z m -0.6254241,0.28279 q 0,-0.0449 0.0015,-0.0703 0.0015,-0.0254 0.0015,-0.0449 0,-0.0688 -0.032917,-0.0987 -0.032917,-0.0314 -0.1062331,-0.0314 h -0.2573533 v 0.43241 h -0.224436 v -1.09076 h 0.5850299 q 0.083789,0 0.143639,0.0284 0.061346,0.0284 0.091271,0.0748 0.031421,0.0464 0.044887,0.0943 0.013466,0.0464 0.013466,0.0973 0,0.1975 -0.1840375,0.26932 0.040399,0.0165 0.05985,0.0269 0.019451,0.009 0.038902,0.0314 0.020947,0.0224 0.026932,0.0404 0.00748,0.0179 0.013466,0.0658 0.00748,0.0479 0.00898,0.0943 0.0015,0.0464 0.00299,0.13766 0,0.0628 0.04788,0.0898 v 0.0404 h -0.2408946 q -0.020947,-0.0389 -0.028429,-0.0748 -0.00598,-0.0359 -0.00598,-0.11222 z m 0.03591,-0.57755 q 0,-0.0838 -0.038902,-0.11072 -0.038902,-0.0284 -0.1196992,-0.0284 H -5.76849 v 0.28429 h 0.2708195 q 0.079301,0 0.1182029,-0.0284 0.040398,-0.0284 0.040398,-0.11671 z m -0.8708118,-0.32618 v 1.09076 h -0.224436 v -1.09076 z m -0.6254255,0.59551 H -7.26772 v 0.49525 h -0.224436 v -1.09076 h 0.224436 v 0.40848 h 0.4309172 v -0.40848 h 0.2259322 v 1.09076 h -0.224436 z m -0.8034795,-0.26334 h -0.2094736 q -0.01197,-0.17057 -0.2289248,-0.17057 -0.086782,0 -0.137654,0.0374 -0.050872,0.0359 -0.050872,0.0973 0,0.0598 0.043391,0.0898 0.043391,0.0284 0.1630901,0.0524 l 0.1705714,0.0329 q 0.1511202,0.0299 0.2199473,0.10174 0.068827,0.0703 0.068827,0.199 0,0.16608 -0.118203,0.26035 -0.1182029,0.0928 -0.3291728,0.0928 -0.2094736,0 -0.3261803,-0.0928 -0.1152105,-0.0928 -0.1256841,-0.26783 h 0.218451 q 0.00599,0.0883 0.068827,0.13466 0.062842,0.0464 0.1765564,0.0464 0.1017443,0 0.1600976,-0.0389 0.05985,-0.0389 0.05985,-0.10773 0,-0.0658 -0.046383,-0.10174 -0.046383,-0.0359 -0.1586014,-0.0569 l -0.1526165,-0.0299 q -0.1660827,-0.0314 -0.2364059,-0.0987 -0.070323,-0.0673 -0.070323,-0.19452 0,-0.16009 0.1077293,-0.24688 0.1092255,-0.0883 0.3052329,-0.0883 0.056857,0 0.1092255,0.007 0.053865,0.007 0.1137143,0.0314 0.05985,0.0224 0.1032405,0.0599 0.043391,0.0359 0.07182,0.10174 0.029925,0.0643 0.029925,0.14963 z m -1.523171,0.36957 v 0.38902 h -0.2244365 v -1.09076 h 0.4817898 q 0.1705713,0 0.2603457,0.0868 0.091271,0.0868 0.091271,0.25137 0,0.16608 -0.089774,0.26484 -0.089774,0.0987 -0.2393984,0.0987 z m 0,-0.18703 h 0.2094736 q 0.1750601,0 0.1750601,-0.16309 0,-0.0838 -0.043391,-0.12419 -0.041895,-0.0404 -0.1316691,-0.0404 h -0.2094736 z m -1.2613279,-0.27381 v 0.84986 h -0.224436 v -1.09076 h 0.335158 l 0.197503,0.86782 0.1915194,-0.86782 h 0.33815 v 1.09076 h -0.224436 v -0.84986 l -0.1930154,0.84986 h -0.224436 z m -0.594003,0.62991 h -0.408474 l -0.07332,0.21995 h -0.228924 l 0.387526,-1.09076 h 0.248376 l 0.377052,1.09076 h -0.230421 z m -0.06135,-0.18703 -0.142143,-0.42643 -0.142143,0.42643 z m -0.98003,-0.0883 h -0.432413 v 0.49525 h -0.224436 v -1.09076 h 0.224436 v 0.40848 h 0.430917 v -0.40848 h 0.225932 v 1.09076 h -0.224436 z" />
      </g>
    </g>
  </g>
</svg>
